<svg xmlns="http://www.w3.org/2000/svg" xmlns:xlink="http://www.w3.org/1999/xlink" width="100" zoomAndPan="magnify" viewBox="0 0 75 44.999999" height="60" preserveAspectRatio="xMidYMid meet" version="1.0"><defs><g/></defs><path stroke-linecap="butt" transform="matrix(0.177093, 0, 0, 0.177093, 1.455476, 24.863258)" fill="none" stroke-linejoin="miter" d="M 60.005421 21.748911 C 60.005421 24.726685 59.27752 27.32948 57.843777 29.535239 C 56.410034 31.740998 54.402794 33.439432 51.799998 34.630542 C 49.197203 35.799594 46.219429 36.395149 42.844618 36.395149 L 34.308332 36.395149 C 33.801007 36.395149 33.558374 36.637782 33.558374 37.100991 L 33.558374 51.195789 C 33.558374 51.857517 33.381913 52.320726 33.051049 52.607475 C 32.720186 52.872166 32.190803 53.004512 31.507018 53.004512 L 21.007607 53.004512 C 20.389994 53.004512 19.948843 52.872166 19.728267 52.629533 C 19.507691 52.386899 19.375345 51.989863 19.375345 51.438423 L 19.375345 8.139379 C 19.375345 7.190903 19.772382 6.705636 20.566455 6.705636 L 41.234414 6.705636 C 44.719513 6.705636 47.895805 7.279134 50.741234 8.426128 C 53.586663 9.551065 55.836537 11.249499 57.512913 13.499373 C 59.167232 15.749247 60.005421 18.484388 60.005421 21.748911 Z M 45.535644 21.550392 C 45.535644 20.094592 45.028319 18.92554 44.035728 18.021179 C 43.043136 17.138875 41.807911 16.675666 40.352111 16.675666 L 34.992117 16.675666 C 34.440677 16.675666 34.065698 16.785954 33.86718 17.006529 C 33.646604 17.205048 33.558374 17.535912 33.558374 17.999121 L 33.558374 25.035491 C 33.558374 25.542816 33.624547 25.895737 33.801007 26.116313 C 33.977468 26.314831 34.242159 26.425119 34.59508 26.425119 L 40.72709 26.425119 C 42.18289 26.425119 43.351943 25.939852 44.212188 25.013434 C 45.094492 24.087015 45.535644 22.917963 45.535644 21.550392 Z M 105.488165 50.997271 C 105.576396 51.173732 105.598453 51.394308 105.598453 51.681056 C 105.598453 52.056035 105.488165 52.386899 105.267589 52.629533 C 105.024956 52.872166 104.738207 53.004512 104.363228 53.004512 L 92.253613 53.004512 C 91.393367 53.004512 90.81987 52.56336 90.577236 51.681056 L 84.709918 35.579018 C 84.577573 35.248154 84.379054 35.005521 84.092306 34.851117 C 83.805557 34.674657 83.364405 34.586426 82.768851 34.586426 L 79.901364 34.586426 C 79.658731 34.586426 79.460213 34.674657 79.349925 34.851117 C 79.217579 35.005521 79.151406 35.159924 79.151406 35.292269 L 79.151406 51.195789 C 79.151406 51.857517 78.997003 52.320726 78.666139 52.607475 C 78.313218 52.872166 77.805894 53.004512 77.100051 53.004512 L 66.600639 53.004512 C 65.983027 53.004512 65.563933 52.872166 65.321299 52.629533 C 65.100723 52.386899 64.990435 51.989863 64.990435 51.438423 L 64.990435 8.139379 C 64.990435 7.190903 65.387472 6.705636 66.181545 6.705636 L 87.025965 6.705636 C 93.047686 6.705636 97.723895 7.852631 101.05459 10.168678 C 104.385286 12.462667 106.039605 15.727189 106.039605 19.918131 C 106.039605 22.807675 105.289647 25.366355 103.767674 27.594171 C 102.2457 29.844045 100.282575 31.432191 97.878298 32.336553 C 97.635664 32.468898 97.503319 32.689474 97.503319 32.976223 C 97.503319 33.08651 97.547434 33.285029 97.635664 33.527662 Z M 86.452468 25.278125 C 88.040614 25.278125 89.253781 24.881088 90.114027 24.087015 C 90.974273 23.270884 91.393367 22.168005 91.393367 20.800434 C 91.393367 19.256403 90.886043 18.065294 89.849336 17.205048 C 88.834687 16.366859 87.577405 15.925708 86.077489 15.925708 L 80.58515 15.925708 C 80.055767 15.925708 79.680788 16.035996 79.460213 16.234514 C 79.261694 16.410975 79.151406 16.719781 79.151406 17.18299 L 79.151406 23.976727 C 79.151406 24.439936 79.239637 24.7708 79.371982 24.991376 C 79.526385 25.189894 79.791076 25.278125 80.210171 25.278125 Z M 132.266076 53.622124 C 127.722213 53.622124 123.751847 52.65159 120.354979 50.73258 C 116.980168 48.791512 114.355315 46.034314 112.524536 42.483043 C 110.693756 38.931771 109.789395 34.762887 109.789395 29.976391 C 109.789395 25.189894 110.715813 20.998953 112.568651 17.403566 C 114.421488 13.808179 117.046341 11.028923 120.421152 9.043741 C 123.81802 7.058558 127.766328 6.088024 132.266076 6.088024 C 136.699651 6.088024 140.603844 7.058558 143.978655 9.043741 C 147.353466 11.028923 149.956261 13.808179 151.809098 17.403566 C 153.661935 20.998953 154.588354 25.189894 154.588354 29.976391 C 154.588354 34.718772 153.683993 38.887656 151.831156 42.460985 C 150.000376 46.034314 147.397581 48.791512 144.044828 50.73258 C 140.670017 52.65159 136.743766 53.622124 132.266076 53.622124 Z M 132.266076 43.894728 C 134.096856 43.894728 135.530599 43.453576 136.611421 42.549215 C 137.7143 41.644854 138.486316 40.211111 138.99364 38.225928 C 139.500965 36.218688 139.743598 33.527662 139.743598 30.152851 C 139.743598 25.013434 139.148043 21.307759 137.978991 19.057885 C 136.831997 16.808011 134.912986 15.683074 132.266076 15.683074 C 129.552993 15.683074 127.589868 16.808011 126.420815 19.057885 C 125.229706 21.307759 124.634151 25.013434 124.634151 30.152851 C 124.634151 33.527662 124.898842 36.218688 125.384109 38.225928 C 125.891433 40.211111 126.685506 41.644854 127.788386 42.549215 C 128.891265 43.453576 130.391181 43.894728 132.266076 43.894728 Z M 158.271971 8.139379 C 158.271971 7.720285 158.404317 7.367364 158.669008 7.12473 C 158.933699 6.837982 159.330735 6.705636 159.816002 6.705636 L 197.13744 6.705636 C 197.644764 6.705636 198.019743 6.837982 198.284434 7.12473 C 198.571183 7.367364 198.703528 7.720285 198.703528 8.139379 L 198.703528 15.550729 C 198.703528 16.344802 198.240319 16.741838 197.335958 16.741838 L 186.285107 16.741838 C 185.79984 16.741838 185.535149 16.940357 185.535149 17.359451 L 185.535149 51.636941 C 185.535149 52.078093 185.424861 52.431014 185.226343 52.673648 C 185.027824 52.894224 184.719018 53.004512 184.344039 53.004512 L 172.499115 53.004512 C 171.749157 53.004512 171.374178 52.585417 171.374178 51.747229 L 171.374178 17.624142 C 171.374178 17.028587 171.153602 16.741838 170.690393 16.741838 L 159.705714 16.741838 C 158.757238 16.741838 158.271971 16.344802 158.271971 15.550729 Z M 224.841769 53.622124 C 220.297906 53.622124 216.349598 52.65159 212.95273 50.73258 C 209.555861 48.791512 206.953066 46.034314 205.122286 42.483043 C 203.291506 38.931771 202.387145 34.762887 202.387145 29.976391 C 202.387145 25.189894 203.291506 20.998953 205.144344 17.403566 C 207.019239 13.808179 209.622034 11.028923 213.018902 9.043741 C 216.393713 7.058558 220.342021 6.088024 224.841769 6.088024 C 229.297402 6.088024 233.201594 7.058558 236.554348 9.043741 C 239.929159 11.028923 242.554011 13.808179 244.384791 17.403566 C 246.259686 20.998953 247.186105 25.189894 247.186105 29.976391 C 247.186105 34.718772 246.259686 38.887656 244.428906 42.460985 C 242.598127 46.034314 239.995331 48.791512 236.62052 50.73258 C 233.267767 52.65159 229.341517 53.622124 224.841769 53.622124 Z M 224.841769 43.894728 C 226.672549 43.894728 228.128349 43.453576 229.209171 42.549215 C 230.289993 41.644854 231.084066 40.211111 231.591391 38.225928 C 232.076658 36.218688 232.319291 33.527662 232.319291 30.152851 C 232.319291 25.013434 231.745794 21.307759 230.576742 19.057885 C 229.407689 16.808011 227.510737 15.683074 224.841769 15.683074 C 222.128686 15.683074 220.187618 16.808011 218.996508 19.057885 C 217.827456 21.307759 217.231901 25.013434 217.231901 30.152851 C 217.231901 33.527662 217.474535 36.218688 217.981859 38.225928 C 218.467126 40.211111 219.261199 41.644854 220.364079 42.549215 C 221.466958 43.453576 222.966874 43.894728 224.841769 43.894728 Z M 273.125827 6.088024 C 276.588868 6.088024 279.698988 6.683579 282.478244 7.918804 C 285.279558 9.131971 287.573547 10.830405 289.360211 12.992049 C 291.146876 15.153692 292.315928 17.6462 292.84531 20.425455 C 292.977655 20.93278 293.043828 21.329817 293.043828 21.616565 C 293.043828 21.991544 292.977655 22.234178 292.823252 22.366523 C 292.668849 22.476811 292.404158 22.565041 292.029179 22.609157 L 281.110674 23.292942 C 280.691579 23.292942 280.426888 23.226769 280.3166 23.072366 C 280.184255 22.94002 280.051909 22.609157 279.919564 22.101832 C 279.566642 20.116649 278.882857 18.550561 277.868208 17.403566 C 276.875617 16.256572 275.419816 15.683074 273.522864 15.683074 C 271.052414 15.683074 269.155461 16.763896 267.832006 18.92554 C 266.508551 21.109241 265.824766 24.616397 265.824766 29.469066 C 265.824766 34.498196 266.442378 38.071525 267.655545 40.211111 C 268.89077 42.328639 270.80978 43.387404 273.434633 43.387404 C 275.640392 43.387404 277.537344 42.835964 279.081376 41.711027 C 280.647464 40.58609 281.948862 38.711195 282.985568 36.086342 C 283.117914 35.711363 283.470835 35.534903 284.044333 35.534903 C 284.331081 35.534903 284.573715 35.55696 284.750175 35.579018 L 292.536504 37.167164 C 293.154116 37.365682 293.462922 37.828892 293.462922 38.57885 C 293.462922 39.747902 292.75708 41.556624 291.323336 44.005016 C 289.889593 46.431351 287.639719 48.637109 284.595772 50.64435 C 281.529768 52.629533 277.66969 53.622124 273.015539 53.622124 C 268.604022 53.622124 264.721886 52.56336 261.391191 50.467889 C 258.060495 48.372418 255.501815 45.482874 253.693093 41.799257 C 251.884371 38.11564 250.98001 33.924699 250.98001 29.226433 C 250.98001 24.572282 251.884371 20.491628 253.693093 17.006529 C 255.501815 13.499373 258.082553 10.808348 261.435306 8.933453 C 264.788059 7.0365 268.692252 6.088024 273.125827 6.088024 Z M 319.490875 53.622124 C 314.947012 53.622124 310.998704 52.65159 307.601836 50.73258 C 304.204967 48.791512 301.602172 46.034314 299.771392 42.483043 C 297.940613 38.931771 297.014194 34.762887 297.014194 29.976391 C 297.014194 25.189894 297.940613 20.998953 299.79345 17.403566 C 301.646287 13.808179 304.27114 11.028923 307.668008 9.043741 C 311.042819 7.058558 314.991127 6.088024 319.490875 6.088024 C 323.946508 6.088024 327.850701 7.058558 331.203454 9.043741 C 334.578265 11.028923 337.18106 13.808179 339.033897 17.403566 C 340.908792 20.998953 341.835211 25.189894 341.835211 29.976391 C 341.835211 34.718772 340.908792 38.887656 339.078012 42.460985 C 337.247233 46.034314 334.644437 48.791512 331.269627 50.73258 C 327.916873 52.65159 323.990623 53.622124 319.490875 53.622124 Z M 319.490875 43.894728 C 321.321655 43.894728 322.777456 43.453576 323.858277 42.549215 C 324.939099 41.644854 325.733172 40.211111 326.218439 38.225928 C 326.725764 36.218688 326.968397 33.527662 326.968397 30.152851 C 326.968397 25.013434 326.3949 21.307759 325.225848 19.057885 C 324.056796 16.808011 322.159843 15.683074 319.490875 15.683074 C 316.777792 15.683074 314.836724 16.808011 313.645615 19.057885 C 312.476562 21.307759 311.881008 25.013434 311.881008 30.152851 C 311.881008 33.527662 312.123641 36.218688 312.630966 38.225928 C 313.116232 40.211111 313.910306 41.644854 315.013185 42.549215 C 316.116064 43.453576 317.61598 43.894728 319.490875 43.894728 Z M 346.996686 8.139379 C 346.996686 7.67617 347.106974 7.323249 347.305492 7.080615 C 347.526068 6.837982 347.812817 6.705636 348.187796 6.705636 L 360.03272 6.705636 C 360.782678 6.705636 361.157657 7.146788 361.157657 8.007034 L 361.157657 41.887488 C 361.157657 42.218352 361.22383 42.460985 361.31206 42.571273 C 361.422348 42.703618 361.620866 42.769791 361.907615 42.769791 L 380.700679 42.769791 C 381.649155 42.769791 382.134422 43.166828 382.134422 43.960901 L 382.134422 51.636941 C 382.134422 52.056035 382.002077 52.386899 381.715328 52.629533 C 381.450637 52.872166 381.075658 53.004512 380.568334 53.004512 L 348.69512 53.004512 C 348.05545 53.004512 347.614299 52.872166 347.371665 52.629533 C 347.129032 52.386899 346.996686 51.989863 346.996686 51.438423 Z M 346.996686 8.139379 " stroke="#000000" stroke-width="2.340049" stroke-opacity="1" stroke-miterlimit="4"/><g fill="#000000" fill-opacity="1"><g transform="translate(6.809941, 21.863021)"><g><path d="M 4.875 -4.90625 C 4.800781 -4.90625 4.738281 -4.878906 4.6875 -4.828125 C 4.632812 -4.785156 4.609375 -4.726562 4.609375 -4.65625 L 4.609375 -0.484375 C 4.609375 -0.304688 4.5625 -0.179688 4.46875 -0.109375 C 4.382812 -0.0351562 4.25 0 4.0625 0 L 1.3125 0 C 1.144531 0 1.023438 -0.03125 0.953125 -0.09375 C 0.890625 -0.164062 0.859375 -0.269531 0.859375 -0.40625 L 0.859375 -11.890625 C 0.859375 -12.003906 0.882812 -12.09375 0.9375 -12.15625 C 1 -12.226562 1.078125 -12.265625 1.171875 -12.265625 L 4.3125 -12.265625 C 4.40625 -12.265625 4.476562 -12.234375 4.53125 -12.171875 C 4.582031 -12.109375 4.609375 -12.023438 4.609375 -11.921875 L 4.609375 -8.078125 C 4.609375 -7.859375 4.707031 -7.75 4.90625 -7.75 L 7.6875 -7.75 C 7.882812 -7.75 7.984375 -7.859375 7.984375 -8.078125 L 7.984375 -11.921875 C 7.984375 -12.023438 8.007812 -12.109375 8.0625 -12.171875 C 8.125 -12.234375 8.195312 -12.265625 8.28125 -12.265625 L 11.421875 -12.265625 C 11.523438 -12.265625 11.601562 -12.226562 11.65625 -12.15625 C 11.707031 -12.09375 11.734375 -12.003906 11.734375 -11.890625 L 11.734375 -0.40625 C 11.734375 -0.269531 11.695312 -0.164062 11.625 -0.09375 C 11.5625 -0.03125 11.453125 0 11.296875 0 L 8.53125 0 C 8.34375 0 8.203125 -0.0351562 8.109375 -0.109375 C 8.023438 -0.179688 7.984375 -0.304688 7.984375 -0.484375 L 7.984375 -4.65625 C 7.984375 -4.726562 7.957031 -4.785156 7.90625 -4.828125 C 7.851562 -4.878906 7.789062 -4.90625 7.71875 -4.90625 Z M 4.875 -4.90625 "/></g></g></g><g fill="#000000" fill-opacity="1"><g transform="translate(19.404127, 21.863021)"><g><path d="M 0.859375 -11.890625 C 0.859375 -12.140625 0.960938 -12.265625 1.171875 -12.265625 L 10.09375 -12.265625 C 10.289062 -12.265625 10.390625 -12.148438 10.390625 -11.921875 L 10.375 -10 C 10.375 -9.707031 10.234375 -9.5625 9.953125 -9.5625 L 5 -9.5625 C 4.738281 -9.5625 4.609375 -9.453125 4.609375 -9.234375 L 4.609375 -7.828125 C 4.609375 -7.722656 4.632812 -7.640625 4.6875 -7.578125 C 4.75 -7.515625 4.820312 -7.484375 4.90625 -7.484375 L 7.890625 -7.484375 C 8.117188 -7.484375 8.234375 -7.375 8.234375 -7.15625 L 8.234375 -5.109375 C 8.234375 -4.921875 8.132812 -4.828125 7.9375 -4.828125 L 4.875 -4.828125 C 4.800781 -4.828125 4.738281 -4.800781 4.6875 -4.75 C 4.632812 -4.707031 4.609375 -4.65625 4.609375 -4.59375 L 4.609375 -2.9375 C 4.609375 -2.851562 4.617188 -2.796875 4.640625 -2.765625 C 4.671875 -2.734375 4.726562 -2.71875 4.8125 -2.71875 L 10.1875 -2.71875 C 10.425781 -2.71875 10.546875 -2.609375 10.546875 -2.390625 L 10.546875 -0.359375 C 10.546875 -0.253906 10.507812 -0.164062 10.4375 -0.09375 C 10.375 -0.03125 10.28125 0 10.15625 0 L 1.3125 0 C 1.144531 0 1.023438 -0.03125 0.953125 -0.09375 C 0.890625 -0.164062 0.859375 -0.269531 0.859375 -0.40625 Z M 0.859375 -11.890625 "/></g></g></g><g fill="#000000" fill-opacity="1"><g transform="translate(30.494281, 21.863021)"><g><path d="M 11.625 -8.28125 C 11.625 -7.488281 11.429688 -6.800781 11.046875 -6.21875 C 10.671875 -5.632812 10.140625 -5.179688 9.453125 -4.859375 C 8.765625 -4.546875 7.972656 -4.390625 7.078125 -4.390625 L 4.8125 -4.390625 C 4.675781 -4.390625 4.609375 -4.332031 4.609375 -4.21875 L 4.609375 -0.484375 C 4.609375 -0.304688 4.5625 -0.179688 4.46875 -0.109375 C 4.382812 -0.0351562 4.25 0 4.0625 0 L 1.296875 0 C 1.128906 0 1.015625 -0.03125 0.953125 -0.09375 C 0.890625 -0.164062 0.859375 -0.269531 0.859375 -0.40625 L 0.859375 -11.890625 C 0.859375 -12.140625 0.960938 -12.265625 1.171875 -12.265625 L 6.640625 -12.265625 C 7.566406 -12.265625 8.40625 -12.113281 9.15625 -11.8125 C 9.914062 -11.507812 10.515625 -11.0625 10.953125 -10.46875 C 11.398438 -9.875 11.625 -9.144531 11.625 -8.28125 Z M 7.78125 -8.328125 C 7.78125 -8.710938 7.648438 -9.023438 7.390625 -9.265625 C 7.128906 -9.503906 6.804688 -9.625 6.421875 -9.625 L 5 -9.625 C 4.851562 -9.625 4.75 -9.59375 4.6875 -9.53125 C 4.632812 -9.476562 4.609375 -9.394531 4.609375 -9.28125 L 4.609375 -7.40625 C 4.609375 -7.269531 4.628906 -7.175781 4.671875 -7.125 C 4.722656 -7.070312 4.796875 -7.046875 4.890625 -7.046875 L 6.515625 -7.046875 C 6.898438 -7.046875 7.207031 -7.164062 7.4375 -7.40625 C 7.664062 -7.65625 7.78125 -7.960938 7.78125 -8.328125 Z M 7.78125 -8.328125 "/></g></g></g><g fill="#000000" fill-opacity="1"><g transform="translate(42.576105, 21.863021)"><g><path d="M 0.46875 -11.890625 C 0.46875 -11.992188 0.5 -12.082031 0.5625 -12.15625 C 0.632812 -12.226562 0.738281 -12.265625 0.875 -12.265625 L 10.765625 -12.265625 C 10.890625 -12.265625 10.988281 -12.226562 11.0625 -12.15625 C 11.132812 -12.082031 11.171875 -11.992188 11.171875 -11.890625 L 11.171875 -9.921875 C 11.171875 -9.710938 11.050781 -9.609375 10.8125 -9.609375 L 7.890625 -9.609375 C 7.753906 -9.609375 7.6875 -9.550781 7.6875 -9.4375 L 7.6875 -0.359375 C 7.6875 -0.242188 7.65625 -0.15625 7.59375 -0.09375 C 7.539062 -0.03125 7.46875 0 7.375 0 L 4.234375 0 C 4.035156 0 3.9375 -0.109375 3.9375 -0.328125 L 3.9375 -9.375 C 3.9375 -9.53125 3.875 -9.609375 3.75 -9.609375 L 0.84375 -9.609375 C 0.59375 -9.609375 0.46875 -9.710938 0.46875 -9.921875 Z M 0.46875 -11.890625 "/></g></g></g><g fill="#000000" fill-opacity="1"><g transform="translate(54.21168, 21.863021)"><g><path d="M 0.703125 0 C 0.617188 0 0.546875 -0.03125 0.484375 -0.09375 C 0.429688 -0.15625 0.40625 -0.238281 0.40625 -0.34375 C 0.40625 -0.425781 0.425781 -0.515625 0.46875 -0.609375 L 4.46875 -11.890625 C 4.519531 -12.023438 4.578125 -12.117188 4.640625 -12.171875 C 4.710938 -12.234375 4.816406 -12.265625 4.953125 -12.265625 L 8.21875 -12.265625 C 8.351562 -12.265625 8.472656 -12.222656 8.578125 -12.140625 C 8.679688 -12.054688 8.757812 -11.945312 8.8125 -11.8125 L 12.78125 -0.5625 C 12.800781 -0.476562 12.8125 -0.410156 12.8125 -0.359375 C 12.8125 -0.265625 12.785156 -0.179688 12.734375 -0.109375 C 12.691406 -0.0351562 12.628906 0 12.546875 0 L 9.3125 0 C 9.125 0 9 -0.09375 8.9375 -0.28125 L 8.296875 -2.1875 C 8.265625 -2.257812 8.234375 -2.304688 8.203125 -2.328125 C 8.179688 -2.359375 8.128906 -2.375 8.046875 -2.375 L 4.546875 -2.375 C 4.410156 -2.375 4.328125 -2.316406 4.296875 -2.203125 L 3.625 -0.25 C 3.550781 -0.0820312 3.414062 0 3.21875 0 Z M 7.21875 -5.1875 C 7.34375 -5.1875 7.40625 -5.242188 7.40625 -5.359375 C 7.40625 -5.378906 7.394531 -5.429688 7.375 -5.515625 L 6.375 -8.34375 C 6.351562 -8.40625 6.320312 -8.4375 6.28125 -8.4375 C 6.238281 -8.4375 6.207031 -8.40625 6.1875 -8.34375 L 5.171875 -5.53125 C 5.148438 -5.488281 5.140625 -5.4375 5.140625 -5.375 C 5.140625 -5.25 5.207031 -5.1875 5.34375 -5.1875 Z M 7.21875 -5.1875 "/></g></g></g></svg>