<svg xmlns="http://www.w3.org/2000/svg" xmlns:xlink="http://www.w3.org/1999/xlink" width="196" zoomAndPan="magnify" viewBox="0 0 147 88.499997" height="118" preserveAspectRatio="xMidYMid meet" version="1.0"><defs><g/><clipPath id="5200cde542"><path d="M 0.414062 0 L 146.585938 0 L 146.585938 88.003906 L 0.414062 88.003906 Z M 0.414062 0 " clip-rule="nonzero"/></clipPath></defs><g clip-path="url(#5200cde542)"><path fill="#ffffff" d="M 0.414062 0 L 146.585938 0 L 146.585938 95.460938 L 0.414062 95.460938 Z M 0.414062 0 " fill-opacity="1" fill-rule="nonzero"/><path fill="#ffffff" d="M 0.414062 0 L 146.585938 0 L 146.585938 88.003906 L 0.414062 88.003906 Z M 0.414062 0 " fill-opacity="1" fill-rule="nonzero"/><path fill="#ffffff" d="M 0.414062 0 L 146.585938 0 L 146.585938 88.003906 L 0.414062 88.003906 Z M 0.414062 0 " fill-opacity="1" fill-rule="nonzero"/></g><path stroke-linecap="butt" transform="matrix(0.346539, 0, 0, 0.346539, 2.967498, 48.625867)" fill="none" stroke-linejoin="miter" d="M 60.00544 21.741539 C 60.00544 24.739939 59.284021 27.332541 57.852454 29.541889 C 56.420886 31.739965 54.403166 33.442064 51.799292 34.625643 C 49.20669 35.809223 46.219561 36.395376 42.849179 36.395376 L 34.304865 36.395376 C 33.797616 36.395376 33.549628 36.632092 33.549628 37.094251 L 33.549628 51.184479 C 33.549628 51.86081 33.380546 52.334242 33.053652 52.604774 C 32.715487 52.864035 32.196966 52.999301 31.498091 52.999301 L 21.003689 52.999301 C 20.383719 52.999301 19.955376 52.875307 19.71866 52.638591 C 19.493217 52.379331 19.380495 51.984804 19.380495 51.44374 L 19.380495 8.136015 C 19.380495 7.177879 19.786294 6.704448 20.575346 6.704448 L 41.237257 6.704448 C 44.720361 6.704448 47.899117 7.279329 50.739707 8.429091 C 53.591569 9.55631 55.846005 11.247137 57.503016 13.501574 C 59.171299 15.744738 60.00544 18.483878 60.00544 21.741539 Z M 45.531958 21.561184 C 45.531958 20.0958 45.02471 18.912221 44.032758 18.021719 C 43.040806 17.131216 41.812138 16.680329 40.346754 16.680329 L 34.981195 16.680329 C 34.451403 16.680329 34.068149 16.793051 33.853977 16.99595 C 33.651078 17.198849 33.549628 17.537015 33.549628 17.987902 L 33.549628 25.044288 C 33.549628 25.540264 33.639806 25.900974 33.797616 26.115146 C 33.966699 26.318045 34.237231 26.419495 34.609213 26.419495 L 40.730009 26.419495 C 42.18412 26.419495 43.345155 25.946063 44.213113 25.010472 C 45.092343 24.074881 45.531958 22.925118 45.531958 21.561184 Z M 105.488697 51.004124 C 105.567602 51.161935 105.612691 51.398651 105.612691 51.691728 C 105.612691 52.06371 105.488697 52.379331 105.251981 52.638591 C 105.037809 52.875307 104.744733 52.999301 104.372751 52.999301 L 92.266427 52.999301 C 91.387196 52.999301 90.823587 52.559686 90.575599 51.691728 L 84.702792 35.583779 C 84.59007 35.256886 84.375899 34.997625 84.082822 34.839815 C 83.801018 34.682004 83.361402 34.591827 82.775249 34.591827 L 79.912115 34.591827 C 79.652854 34.591827 79.461227 34.682004 79.348506 34.839815 C 79.224512 34.997625 79.156878 35.155436 79.156878 35.27943 L 79.156878 51.184479 C 79.156878 51.86081 78.987796 52.334242 78.660902 52.604774 C 78.322737 52.864035 77.804217 52.999301 77.105341 52.999301 L 66.610939 52.999301 C 65.990969 52.999301 65.562626 52.875307 65.325911 52.638591 C 65.100467 52.379331 64.987745 51.984804 64.987745 51.44374 L 64.987745 8.136015 C 64.987745 7.177879 65.393544 6.704448 66.182596 6.704448 L 87.024862 6.704448 C 93.055479 6.704448 97.733435 7.85421 101.047457 10.165008 C 104.384023 12.464533 106.052306 15.722193 106.052306 19.926718 C 106.052306 22.801124 105.285797 25.359909 103.764053 27.603074 C 102.25358 29.846238 100.29222 31.424344 97.879973 32.33739 C 97.631985 32.472657 97.507991 32.686828 97.507991 32.968633 C 97.507991 33.092627 97.541808 33.272982 97.620713 33.532242 Z M 86.461253 25.292276 C 88.039358 25.292276 89.256754 24.886478 90.11344 24.086153 C 90.970126 23.274556 91.398469 22.181154 91.398469 20.794676 C 91.398469 19.261659 90.879948 18.066807 89.85418 17.210122 C 88.839683 16.364708 87.577199 15.936365 86.077998 15.936365 L 80.588446 15.936365 C 80.058653 15.936365 79.675399 16.026542 79.461227 16.229442 C 79.258328 16.409797 79.156878 16.725418 79.156878 17.187577 L 79.156878 23.973431 C 79.156878 24.435591 79.235784 24.773756 79.37105 24.987927 C 79.517588 25.190827 79.799393 25.292276 80.216464 25.292276 Z M 132.26013 53.619271 C 127.71744 53.619271 123.749632 52.661135 120.356705 50.733592 C 116.97505 48.794777 114.359904 46.044364 112.533811 42.493627 C 110.707717 38.931617 109.79467 34.76091 109.79467 29.981504 C 109.79467 25.202099 110.718989 21.008847 112.567627 17.413021 C 114.416265 13.805922 117.042684 11.021693 120.424338 9.049061 C 123.817265 7.065157 127.762529 6.073205 132.26013 6.073205 C 136.712642 6.073205 140.612817 7.065157 143.971927 9.049061 C 147.34231 11.021693 149.957456 13.805922 151.806094 17.413021 C 153.666004 21.008847 154.590323 25.202099 154.590323 29.981504 C 154.590323 34.727093 153.677276 38.886528 151.839911 42.45981 C 150.013817 46.033092 147.409943 48.794777 144.039561 50.733592 C 140.669178 52.661135 136.746458 53.619271 132.26013 53.619271 Z M 132.26013 43.891377 C 134.086223 43.891377 135.540335 43.44049 136.622464 42.549988 C 137.704594 41.659485 138.493647 40.216646 138.989623 38.22147 C 139.496871 36.226293 139.744859 33.532242 139.744859 30.161859 C 139.744859 24.9992 139.158706 21.301924 137.986399 19.058759 C 136.825364 16.815595 134.920365 15.688377 132.26013 15.688377 C 129.543534 15.688377 127.593446 16.815595 126.409867 19.058759 C 125.23756 21.301924 124.640135 24.9992 124.640135 30.161859 C 124.640135 33.532242 124.888123 36.226293 125.384099 38.22147 C 125.891347 40.216646 126.6804 41.659485 127.785073 42.549988 C 128.889747 43.44049 130.377675 43.891377 132.26013 43.891377 Z M 158.276327 8.136015 C 158.276327 7.718944 158.400321 7.380778 158.670853 7.110246 C 158.941386 6.839714 159.32464 6.704448 159.820616 6.704448 L 197.13154 6.704448 C 197.638788 6.704448 198.033314 6.839714 198.292575 7.110246 C 198.563107 7.380778 198.698373 7.718944 198.698373 8.136015 L 198.698373 15.553111 C 198.698373 16.342164 198.247486 16.73669 197.334439 16.73669 L 186.2877 16.73669 C 185.791724 16.73669 185.543736 16.950861 185.543736 17.367932 L 185.543736 51.624095 C 185.543736 52.086254 185.431014 52.435692 185.216843 52.661135 C 185.013944 52.886579 184.732139 52.999301 184.348885 52.999301 L 172.501821 52.999301 C 171.746585 52.999301 171.374603 52.58223 171.374603 51.748089 L 171.374603 17.627192 C 171.374603 17.041039 171.149159 16.73669 170.687 16.73669 L 159.707894 16.73669 C 158.749759 16.73669 158.276327 16.342164 158.276327 15.553111 Z M 224.849836 53.619271 C 220.307147 53.619271 216.339339 52.661135 212.946412 50.733592 C 209.553485 48.794777 206.949611 46.044364 205.123517 42.493627 C 203.286151 38.931617 202.373105 34.76091 202.373105 29.981504 C 202.373105 25.202099 203.297424 21.008847 205.146061 17.413021 C 207.005972 13.805922 209.63239 11.021693 213.014045 9.049061 C 216.406972 7.065157 220.352236 6.073205 224.849836 6.073205 C 229.291076 6.073205 233.202524 7.065157 236.561634 9.049061 C 239.932016 11.021693 242.547163 13.805922 244.395801 17.413021 C 246.255711 21.008847 247.18003 25.202099 247.18003 29.981504 C 247.18003 34.727093 246.266983 38.886528 244.429617 42.45981 C 242.592251 46.033092 239.99965 48.794777 236.629267 50.733592 C 233.258884 52.661135 229.336165 53.619271 224.849836 53.619271 Z M 224.849836 43.891377 C 226.67593 43.891377 228.130041 43.44049 229.200899 42.549988 C 230.2943 41.659485 231.083353 40.216646 231.579329 38.22147 C 232.075305 36.226293 232.323293 33.532242 232.323293 30.161859 C 232.323293 24.9992 231.748412 21.301924 230.576105 19.058759 C 229.41507 16.815595 227.510071 15.688377 224.849836 15.688377 C 222.13324 15.688377 220.183153 16.815595 218.999574 19.058759 C 217.815995 21.301924 217.229841 24.9992 217.229841 30.161859 C 217.229841 33.532242 217.477829 36.226293 217.973805 38.22147 C 218.469781 40.216646 219.270106 41.659485 220.363508 42.549988 C 221.479454 43.44049 222.967382 43.891377 224.849836 43.891377 Z M 273.128594 6.073205 C 276.589154 6.073205 279.700276 6.693175 282.484505 7.921843 C 285.280006 9.139239 287.568259 10.830066 289.360536 12.994325 C 291.141541 15.158584 292.302576 17.638465 292.843641 20.433966 C 292.978907 20.929942 293.04654 21.324468 293.04654 21.617545 C 293.04654 21.989527 292.967635 22.237515 292.809824 22.361509 C 292.674558 22.485503 292.415298 22.564408 292.032044 22.609497 L 281.109299 23.2971 C 280.7035 23.2971 280.432968 23.218195 280.308974 23.082929 C 280.18498 22.93639 280.060986 22.609497 279.92572 22.102249 C 279.56501 20.118345 278.877407 18.551511 277.874182 17.413021 C 276.870958 16.263258 275.416847 15.688377 273.511848 15.688377 C 271.054512 15.688377 269.160785 16.770506 267.830668 18.934765 C 266.50055 21.099025 265.835492 24.615945 265.835492 29.474256 C 265.835492 34.501649 266.44419 38.074931 267.661585 40.205374 C 268.890253 42.324544 270.817796 43.384129 273.432943 43.384129 C 275.653563 43.384129 277.536017 42.831792 279.091578 41.715846 C 280.647139 40.588628 281.954713 38.706173 282.991753 36.091027 C 283.104475 35.719045 283.465185 35.527418 284.051338 35.527418 C 284.344415 35.527418 284.569859 35.549962 284.738942 35.583779 L 292.539292 37.161884 C 293.159262 37.364784 293.474883 37.838215 293.474883 38.593452 C 293.474883 39.754486 292.753463 41.558036 291.321896 43.992827 C 289.890329 46.427618 287.647165 48.636966 284.592403 50.643415 C 281.52637 52.627319 277.671283 53.619271 273.0046 53.619271 C 268.597176 53.619271 264.730818 52.570958 261.405524 50.474332 C 258.068958 48.366434 255.4989 45.480755 253.695351 41.806024 C 251.88053 38.12002 250.978755 33.926768 250.978755 29.214996 C 250.978755 24.570857 251.88053 20.490327 253.695351 16.99595 C 255.4989 13.512846 258.08023 10.818794 261.428068 8.925067 C 264.787179 7.031341 268.687354 6.073205 273.128594 6.073205 Z M 319.49108 53.619271 C 314.959663 53.619271 310.991854 52.661135 307.598928 50.733592 C 304.206001 48.794777 301.590854 46.044364 299.764761 42.493627 C 297.938667 38.931617 297.02562 34.76091 297.02562 29.981504 C 297.02562 25.202099 297.949939 21.008847 299.798577 17.413021 C 301.658487 13.805922 304.273634 11.021693 307.655288 9.049061 C 311.048215 7.065157 314.993479 6.073205 319.49108 6.073205 C 323.943592 6.073205 327.843767 7.065157 331.21415 9.049061 C 334.584532 11.021693 337.188406 13.805922 339.037044 17.413021 C 340.896954 21.008847 341.832546 25.202099 341.832546 29.981504 C 341.832546 34.727093 340.908227 38.886528 339.070861 42.45981 C 337.244767 46.033092 334.640893 48.794777 331.270511 50.733592 C 327.9114 52.661135 323.988681 53.619271 319.49108 53.619271 Z M 319.49108 43.891377 C 321.317174 43.891377 322.771285 43.44049 323.853415 42.549988 C 324.935544 41.659485 325.735869 40.216646 326.231845 38.22147 C 326.727821 36.226293 326.975809 33.532242 326.975809 30.161859 C 326.975809 24.9992 326.389656 21.301924 325.217349 19.058759 C 324.067586 16.815595 322.151315 15.688377 319.49108 15.688377 C 316.785756 15.688377 314.835669 16.815595 313.640817 19.058759 C 312.46851 21.301924 311.882357 24.9992 311.882357 30.161859 C 311.882357 33.532242 312.130345 36.226293 312.626321 38.22147 C 313.122297 40.216646 313.922622 41.659485 315.016024 42.549988 C 316.120697 43.44049 317.619898 43.891377 319.49108 43.891377 Z M 346.995205 8.136015 C 346.995205 7.673855 347.096655 7.324418 347.299554 7.087702 C 347.513726 6.828442 347.806802 6.704448 348.190056 6.704448 L 360.03712 6.704448 C 360.792356 6.704448 361.164338 7.144063 361.164338 8.012021 L 361.164338 41.896201 C 361.164338 42.234367 361.220699 42.45981 361.322149 42.583804 C 361.423599 42.696526 361.615226 42.764159 361.908303 42.764159 L 380.699031 42.764159 C 381.645894 42.764159 382.130598 43.158686 382.130598 43.947738 L 382.130598 51.624095 C 382.130598 52.041165 381.995332 52.379331 381.713527 52.638591 C 381.454267 52.875307 381.071013 52.999301 380.575037 52.999301 L 348.686033 52.999301 C 348.05479 52.999301 347.615175 52.875307 347.367187 52.638591 C 347.119199 52.379331 346.995205 51.984804 346.995205 51.44374 Z M 346.995205 8.136015 " stroke="#000000" stroke-width="2.340049" stroke-opacity="1" stroke-miterlimit="4"/><g fill="#000000" fill-opacity="1"><g transform="translate(13.445202, 42.754953)"><g><path d="M 9.546875 -9.609375 C 9.390625 -9.609375 9.265625 -9.554688 9.171875 -9.453125 C 9.078125 -9.359375 9.03125 -9.25 9.03125 -9.125 L 9.03125 -0.9375 C 9.03125 -0.59375 8.941406 -0.347656 8.765625 -0.203125 C 8.585938 -0.0664062 8.316406 0 7.953125 0 L 2.5625 0 C 2.226562 0 2 -0.0625 1.875 -0.1875 C 1.75 -0.320312 1.6875 -0.53125 1.6875 -0.8125 L 1.6875 -23.25 C 1.6875 -23.488281 1.738281 -23.671875 1.84375 -23.796875 C 1.945312 -23.929688 2.097656 -24 2.296875 -24 L 8.4375 -24 C 8.613281 -24 8.753906 -23.9375 8.859375 -23.8125 C 8.972656 -23.695312 9.03125 -23.53125 9.03125 -23.3125 L 9.03125 -15.8125 C 9.03125 -15.382812 9.222656 -15.171875 9.609375 -15.171875 L 15.046875 -15.171875 C 15.429688 -15.171875 15.625 -15.382812 15.625 -15.8125 L 15.625 -23.3125 C 15.625 -23.53125 15.675781 -23.695312 15.78125 -23.8125 C 15.894531 -23.9375 16.035156 -24 16.203125 -24 L 22.34375 -24 C 22.539062 -24 22.691406 -23.929688 22.796875 -23.796875 C 22.910156 -23.671875 22.96875 -23.488281 22.96875 -23.25 L 22.96875 -0.8125 C 22.96875 -0.53125 22.898438 -0.320312 22.765625 -0.1875 C 22.640625 -0.0625 22.414062 0 22.09375 0 L 16.6875 0 C 16.320312 0 16.050781 -0.0664062 15.875 -0.203125 C 15.707031 -0.347656 15.625 -0.59375 15.625 -0.9375 L 15.625 -9.125 C 15.625 -9.25 15.570312 -9.359375 15.46875 -9.453125 C 15.375 -9.554688 15.253906 -9.609375 15.109375 -9.609375 Z M 9.546875 -9.609375 "/></g></g></g><g fill="#000000" fill-opacity="1"><g transform="translate(38.089706, 42.754953)"><g><path d="M 1.6875 -23.25 C 1.6875 -23.75 1.890625 -24 2.296875 -24 L 19.765625 -24 C 20.148438 -24 20.34375 -23.769531 20.34375 -23.3125 L 20.3125 -19.5625 C 20.3125 -18.976562 20.03125 -18.6875 19.46875 -18.6875 L 9.765625 -18.6875 C 9.273438 -18.6875 9.03125 -18.484375 9.03125 -18.078125 L 9.03125 -15.328125 C 9.03125 -15.109375 9.082031 -14.941406 9.1875 -14.828125 C 9.289062 -14.710938 9.429688 -14.65625 9.609375 -14.65625 L 15.421875 -14.65625 C 15.878906 -14.65625 16.109375 -14.4375 16.109375 -14 L 16.109375 -10 C 16.109375 -9.625 15.914062 -9.4375 15.53125 -9.4375 L 9.546875 -9.4375 C 9.390625 -9.4375 9.265625 -9.394531 9.171875 -9.3125 C 9.078125 -9.226562 9.03125 -9.117188 9.03125 -8.984375 L 9.03125 -5.75 C 9.03125 -5.582031 9.054688 -5.460938 9.109375 -5.390625 C 9.160156 -5.328125 9.257812 -5.296875 9.40625 -5.296875 L 19.921875 -5.296875 C 20.398438 -5.296875 20.640625 -5.09375 20.640625 -4.6875 L 20.640625 -0.71875 C 20.640625 -0.5 20.570312 -0.320312 20.4375 -0.1875 C 20.3125 -0.0625 20.117188 0 19.859375 0 L 2.5625 0 C 2.226562 0 2 -0.0625 1.875 -0.1875 C 1.75 -0.320312 1.6875 -0.53125 1.6875 -0.8125 Z M 1.6875 -23.25 "/></g></g></g><g fill="#000000" fill-opacity="1"><g transform="translate(59.791098, 42.754953)"><g><path d="M 22.734375 -16.203125 C 22.734375 -14.648438 22.359375 -13.300781 21.609375 -12.15625 C 20.867188 -11.019531 19.828125 -10.144531 18.484375 -9.53125 C 17.140625 -8.914062 15.59375 -8.609375 13.84375 -8.609375 L 9.40625 -8.609375 C 9.15625 -8.609375 9.03125 -8.488281 9.03125 -8.25 L 9.03125 -0.9375 C 9.03125 -0.59375 8.941406 -0.347656 8.765625 -0.203125 C 8.585938 -0.0664062 8.316406 0 7.953125 0 L 2.515625 0 C 2.191406 0 1.972656 -0.0625 1.859375 -0.1875 C 1.742188 -0.320312 1.6875 -0.53125 1.6875 -0.8125 L 1.6875 -23.25 C 1.6875 -23.75 1.890625 -24 2.296875 -24 L 13 -24 C 14.8125 -24 16.457031 -23.703125 17.9375 -23.109375 C 19.414062 -22.515625 20.582031 -21.632812 21.4375 -20.46875 C 22.300781 -19.3125 22.734375 -17.890625 22.734375 -16.203125 Z M 15.234375 -16.296875 C 15.234375 -17.054688 14.972656 -17.664062 14.453125 -18.125 C 13.941406 -18.59375 13.304688 -18.828125 12.546875 -18.828125 L 9.765625 -18.828125 C 9.484375 -18.828125 9.289062 -18.769531 9.1875 -18.65625 C 9.082031 -18.550781 9.03125 -18.378906 9.03125 -18.140625 L 9.03125 -14.484375 C 9.03125 -14.234375 9.070312 -14.050781 9.15625 -13.9375 C 9.238281 -13.832031 9.378906 -13.78125 9.578125 -13.78125 L 12.75 -13.78125 C 13.5 -13.78125 14.097656 -14.019531 14.546875 -14.5 C 15.003906 -14.988281 15.234375 -15.585938 15.234375 -16.296875 Z M 15.234375 -16.296875 "/></g></g></g><g fill="#000000" fill-opacity="1"><g transform="translate(83.433004, 42.754953)"><g><path d="M 0.90625 -23.25 C 0.90625 -23.46875 0.972656 -23.644531 1.109375 -23.78125 C 1.253906 -23.925781 1.457031 -24 1.71875 -24 L 21.0625 -24 C 21.3125 -24 21.503906 -23.925781 21.640625 -23.78125 C 21.785156 -23.644531 21.859375 -23.46875 21.859375 -23.25 L 21.859375 -19.40625 C 21.859375 -19 21.625 -18.796875 21.15625 -18.796875 L 15.421875 -18.796875 C 15.171875 -18.796875 15.046875 -18.6875 15.046875 -18.46875 L 15.046875 -0.71875 C 15.046875 -0.476562 14.988281 -0.296875 14.875 -0.171875 C 14.769531 -0.0546875 14.617188 0 14.421875 0 L 8.28125 0 C 7.894531 0 7.703125 -0.210938 7.703125 -0.640625 L 7.703125 -18.34375 C 7.703125 -18.644531 7.582031 -18.796875 7.34375 -18.796875 L 1.65625 -18.796875 C 1.15625 -18.796875 0.90625 -19 0.90625 -19.40625 Z M 0.90625 -23.25 "/></g></g></g><g fill="#000000" fill-opacity="1"><g transform="translate(106.201684, 42.754953)"><g><path d="M 1.390625 0 C 1.210938 0 1.070312 -0.0546875 0.96875 -0.171875 C 0.863281 -0.296875 0.8125 -0.460938 0.8125 -0.671875 C 0.8125 -0.828125 0.84375 -1.003906 0.90625 -1.203125 L 8.734375 -23.25 C 8.835938 -23.53125 8.953125 -23.722656 9.078125 -23.828125 C 9.210938 -23.941406 9.421875 -24 9.703125 -24 L 16.078125 -24 C 16.335938 -24 16.566406 -23.914062 16.765625 -23.75 C 16.972656 -23.59375 17.128906 -23.382812 17.234375 -23.125 L 25 -1.09375 C 25.039062 -0.925781 25.0625 -0.800781 25.0625 -0.71875 C 25.0625 -0.519531 25.019531 -0.347656 24.9375 -0.203125 C 24.851562 -0.0664062 24.722656 0 24.546875 0 L 18.203125 0 C 17.835938 0 17.601562 -0.179688 17.5 -0.546875 L 16.234375 -4.265625 C 16.171875 -4.421875 16.113281 -4.523438 16.0625 -4.578125 C 16.007812 -4.628906 15.90625 -4.65625 15.75 -4.65625 L 8.890625 -4.65625 C 8.628906 -4.65625 8.46875 -4.535156 8.40625 -4.296875 L 7.078125 -0.484375 C 6.953125 -0.160156 6.695312 0 6.3125 0 Z M 14.140625 -10.15625 C 14.367188 -10.15625 14.484375 -10.265625 14.484375 -10.484375 C 14.484375 -10.523438 14.460938 -10.628906 14.421875 -10.796875 L 12.484375 -16.328125 C 12.441406 -16.441406 12.375 -16.5 12.28125 -16.5 C 12.195312 -16.5 12.132812 -16.441406 12.09375 -16.328125 L 10.125 -10.828125 C 10.082031 -10.742188 10.0625 -10.640625 10.0625 -10.515625 C 10.0625 -10.273438 10.191406 -10.15625 10.453125 -10.15625 Z M 14.140625 -10.15625 "/></g></g></g></svg>